<?xml version="1.0" encoding="UTF-8"?>
<svg width="200" height="200" viewBox="0 0 200 200" xmlns="http://www.w3.org/2000/svg">
    <!-- Fondo circular -->
    <circle cx="100" cy="100" r="100" fill="#f4f7fa"/>
    
    <!-- Silueta de la persona -->
    <circle cx="100" cy="70" r="40" fill="#004e89"/>
    <path d="M100 110 L100 160 Q100 180 120 180 L140 180 Q160 180 160 160 L160 140 Q160 120 140 120 L60 120 Q40 120 40 140 L40 160 Q40 180 60 180 L80 180 Q100 180 100 160 Z" fill="#004e89"/>
    
    <!-- Detalles -->
    <circle cx="85" cy="60" r="5" fill="#fff"/>
    <circle cx="115" cy="60" r="5" fill="#fff"/>
    <path d="M85 80 Q100 90 115 80" fill="none" stroke="#fff" stroke-width="3"/>
    
    <!-- Iconos de tecnología -->
    <rect x="40" y="140" width="15" height="15" fill="#003666"/>
    <rect x="145" y="140" width="15" height="15" fill="#003666"/>
</svg>